<svg xmlns="http://www.w3.org/2000/svg" viewBox="0 0 300 59.05"><defs><style>.cls-1{fill:#1d1d1b;}</style></defs><g id="Layer_2" data-name="Layer 2"><g id="Layer_1-2" data-name="Layer 1"><path class="cls-1" d="M30.14,5.66C25.57,1.58,19.54,0,13.94,0S3.47,1.58,1.46,3.71A4.86,4.86,0,0,0,0,7a4,4,0,0,0,3.29,4c.67-.73,2.62-1.71,5.29-2.5L7.91,21.79C7.73,26,7.55,30.2,7.55,33.91c0,1,.06,2.07.06,3a8.93,8.93,0,0,0-1.46,4.75A8.15,8.15,0,0,0,6.51,44,10.61,10.61,0,0,0,13,50.17a12.25,12.25,0,0,0,3.83.54,23.59,23.59,0,0,0,16.2-6.94c4-4.2,6.21-10,6.21-17A28.24,28.24,0,0,0,30.14,5.66ZM29,35.19A21.42,21.42,0,0,1,23,42.68c-2.07,1.52-4.08,2.43-5.42,2.43-1.64,0-2.13-1.89-2.13-3a8.41,8.41,0,0,1,1.77-5c2-2.38,3.29-3.72,6.33-4.39a2.16,2.16,0,0,0,.18-.85c0-1.95-2.13-2.31-3.59-2.31a11.38,11.38,0,0,0-3.83.67c.24-1.46.3-7.37.3-11.88,0-4.93-.12-9.43-.79-11.2C17,7.06,17.53,7,18.08,7c3.72,0,7.31.85,9.74,3.11,2.92,2.8,4.26,6.88,4.26,11.26A30.81,30.81,0,0,1,29,35.19Z"/><path class="cls-1" d="M48.28,12.18a4.19,4.19,0,0,0,1.94-.43,2.61,2.61,0,0,0,1.71-2.56,5,5,0,0,0-1.28-3.1,7.16,7.16,0,0,0-5.24-2.5,4.35,4.35,0,0,0-2,.43,2.81,2.81,0,0,0-1.76,2.62,4.76,4.76,0,0,0,1.28,3A7.28,7.28,0,0,0,48.28,12.18Z"/><path class="cls-1" d="M297.75,35.43A14.54,14.54,0,0,1,296.22,39c-.85,1.53-2,2.8-3.1,2.8a1.53,1.53,0,0,1-.85-.24c-.61-.36-.73-2.13-.73-4.5,0-1.83.06-4,.18-6.09.12-1.89.18-3.84.18-5.42a12.64,12.64,0,0,0-.3-3.41,7.49,7.49,0,0,0-7.19-5.6,4.37,4.37,0,0,0-2.55.67,10.7,10.7,0,0,0-3.17,4.44A65.14,65.14,0,0,0,276,29.83a13.54,13.54,0,0,0,.06-1.83,21.33,21.33,0,0,0-1-6.75,7.13,7.13,0,0,0-6.39-4.57,5.29,5.29,0,0,0-3.29,1.16c-2.62,2.13-4.57,11.81-4.87,13.39.18-2,.36-4,.36-6a14.59,14.59,0,0,0-.67-5.11,5.19,5.19,0,0,0-4.68-2.92,4.65,4.65,0,0,0-2,.42,21.78,21.78,0,0,1,.42,5.18c0,2.68-.12,6-.3,9.07-.12,2-.22,3.93-.27,5.58a11.88,11.88,0,0,1-1.31,2.27c-.85,1.16-1.77,2.07-2.74,2.07a1.4,1.4,0,0,1-.67-.18c-.67-.36-.91-2.31-.91-4.87,0-1.4.06-2.92.18-4.5.3-4.39.85-8.95.85-10.42s-1.34-2.86-2.86-3.71a6.71,6.71,0,0,0-3-1c-.67,0-1.16.24-1.16.85l-.12,1a8.62,8.62,0,0,0-6.82-3.22,10.13,10.13,0,0,0-3.53.61c-4,1.46-6.27,6.23-7.13,11.24a3.25,3.25,0,0,1-1.7.51A1.21,1.21,0,0,1,222,28a4.77,4.77,0,0,1-3.34-3s2.25-2.62,2.25-4.5c0-2.56-2.74-4.75-4.81-4.75a2.42,2.42,0,0,0-1.46.49c-1.28,1-2.25,3.16-2.25,5.9a16.38,16.38,0,0,0,.12,1.71,16.69,16.69,0,0,0-1,1.88,22.23,22.23,0,0,0-.49-4.87,6.19,6.19,0,0,0-3.1-4.08,5.58,5.58,0,0,0-2.25-.54,2.46,2.46,0,0,0-1.65.48,8.2,8.2,0,0,1,.25,3c0,2.37-.19,5.9-.19,12.23,0,1.57,0,3.11.09,4.54a25.93,25.93,0,0,1-5,4.29c.12-3.41.12-4.93.18-7.49s.12-5.48.24-8c.12-2.13.31-4,.31-4.33,0-1.34-1.22-2.49-2.62-3.16a7,7,0,0,0-2.92-.79c-.86,0-1.47.3-1.53.91l-.18,1.22a8.28,8.28,0,0,0-6.82-3.59,8.86,8.86,0,0,0-3.47.73c-3.16,1.4-5.35,4.56-6.51,8.21a26.89,26.89,0,0,0-1.16,7.61,21.09,21.09,0,0,0,.47,4.54,13.1,13.1,0,0,1-1.62,3c-.85,1.16-1.77,2.07-2.74,2.07a1.38,1.38,0,0,1-.67-.18c-.67-.36-.92-2.31-.92-4.87,0-1.4.07-2.92.19-4.5.3-4.39.85-8.95.85-10.42s-1.34-2.86-2.86-3.71a6.75,6.75,0,0,0-3-1c-.67,0-1.15.24-1.15.85l-.12,1a8.62,8.62,0,0,0-6.82-3.22,10.13,10.13,0,0,0-3.53.61c-5.36,1.94-7.55,9.74-7.55,16.19a26.34,26.34,0,0,0,.42,4.57c0,.21.1.4.15.6a9.64,9.64,0,0,1-1.42,2.44,4.57,4.57,0,0,1-3.29,2,2.14,2.14,0,0,1-1.34-.43c-.91-.67-1.34-3.29-1.34-7.18a109.2,109.2,0,0,1,.85-11.75,30.79,30.79,0,0,0,.43-3.17,22.53,22.53,0,0,0,3.16-.24A3.68,3.68,0,0,0,145.37,18a2,2,0,0,0,.37-1.16,4,4,0,0,0-.43-1.64,42.72,42.72,0,0,1-5.48.18c.06-.91.06-1.76.06-2.55a13.23,13.23,0,0,0-.24-3.23c-.73-2.56-1.77-4.2-3-5a4.25,4.25,0,0,0-2.26-.8,1.86,1.86,0,0,0-1.64.86A7.12,7.12,0,0,0,132,8.28c0,1,.06,2.07.06,3.41,0,1.09,0,2.31-.06,3.77a14.3,14.3,0,0,0-3.41.43,1.27,1.27,0,0,0-.85,1.34,4.15,4.15,0,0,0,.12.85,7.37,7.37,0,0,0,.36,1.34l3.66.12c-.19,4-.31,7.86-.37,11.27-.06,1.33-.06,2.55-.06,3.71,0,.51,0,1,0,1.45a8.92,8.92,0,0,1-1.71,2.81A13.24,13.24,0,0,1,126,42a11.41,11.41,0,0,0,1.22-5.36,17.54,17.54,0,0,0-1.7-7.31c-1-2.13-2.74-5.05-4.39-8.34a3.2,3.2,0,0,1-.36-1.4,3.94,3.94,0,0,1,2.49-3.35.56.56,0,0,0,.37-.48c0-.73-1.4-1.83-3.47-2.13a10.14,10.14,0,0,0-2-.13c-2.68,0-4.75.86-5.48,3.11a5.84,5.84,0,0,0-.3,2,8.13,8.13,0,0,0,.24,2.07,56.89,56.89,0,0,1-1.76,7A56.12,56.12,0,0,1,108.48,34a4.82,4.82,0,0,0-2.86,4.45,6.37,6.37,0,0,0,.61,2.61l0,.08a21.1,21.1,0,0,1-4.6-2.82,45.69,45.69,0,0,1-5.54-5.23s6.52-1.46,9.14-5.42a6,6,0,0,0,1-3.41,8.59,8.59,0,0,0-.91-3.83,6.87,6.87,0,0,0-6-4.08c-3.65,0-6.21,2.49-7.91,5.23.06-2.19.06-4.2.06-6.09A39.64,39.64,0,0,0,91,7.37,6.28,6.28,0,0,0,88,3.29a4.61,4.61,0,0,0-2.38-.61,4,4,0,0,0-1.34.18,5.77,5.77,0,0,1,.06,1.4c0,3.17-.36,11.14-.54,19.06C83.77,26,83.7,28.61,83.7,31c0,1.64,0,3.2.08,4.63h0a9,9,0,0,1-1.89,4.2c-.91,1.15-1.95,2-2.86,2a1.7,1.7,0,0,1-.73-.24c-.49-.3-.67-1.58-.67-3.35,0-1.58.18-3.59.3-5.66,0-.3.06-.61.06-.91.19-2.38.31-4.81.31-6.82A14.15,14.15,0,0,0,78,21.19a8,8,0,0,0-7.12-5,5.21,5.21,0,0,0-3.17,1c-2.49,1.89-4.8,9.5-5.78,13.45a52,52,0,0,0,.55-6.75A11.54,11.54,0,0,0,62,20a5.82,5.82,0,0,0-5-3.65,4.19,4.19,0,0,0-1.46.3,14.7,14.7,0,0,1,.3,3.65c0,2.44-.18,5.61-.42,8.65,0,.24-.07.49-.07.73-.21,2.51-.37,5-.41,7A11.59,11.59,0,0,1,53,39.88a3.41,3.41,0,0,1-2.37,1.46,1.64,1.64,0,0,1-.73-.18c-.67-.37-.85-2.07-.85-4.39,0-1.4.06-3,.18-4.63.24-3.77.67-7.73.67-10.1a9,9,0,0,0-.12-1.52,7.55,7.55,0,0,0-2.5-4.39,5.65,5.65,0,0,0-3.53-1.21,7,7,0,0,0-1.22.12c0,.12.06.42.06.67,0,2.74-1.09,12.84-1.09,19A23.76,23.76,0,0,0,42,40.49c1,3.4,3.47,6.08,7.68,6.08,2.48,0,4.77-1.76,6.24-4a8.06,8.06,0,0,0,1.91,2.34,4.72,4.72,0,0,0,2.68,1.22c.55,0,.91-.25.91-.86,0-1.76,1.1-6.33,2.62-11,2-6.21,4.57-12.55,6-12.55.67,0,.91,1,.91,2.68,0,1.83-.3,4.45-.49,7.07-.12,1.4-.18,2.86-.18,4.26a16.29,16.29,0,0,0,.61,5.11,7.85,7.85,0,0,0,7.73,5.85c1.83,0,4.31-1.88,5.93-4.05a3.18,3.18,0,0,0,.1.33c.67,2.13,3,4.26,4.87,4.26A1.94,1.94,0,0,0,91,46.57c0-1.4,0-5.78.12-11.14a31.05,31.05,0,0,0,4.51,6.21,17.71,17.71,0,0,0,5.48,4,8,8,0,0,0,3.47.85,5,5,0,0,0,2.61-.67,4.46,4.46,0,0,0,1.67-1.64,15.58,15.58,0,0,0,5.52,2.56,26,26,0,0,0,6,.79,15.57,15.57,0,0,0,8-2.07,15.25,15.25,0,0,0,4.1-3.34,7.26,7.26,0,0,0,7.1,4.43A8.9,8.9,0,0,0,147.51,42c1.93,2.89,4.65,4.29,6.69,4.29a4,4,0,0,0,1.22-.18c4.5-1.59,5.78-9.56,6.57-11.33,0,.55-.06,1.34-.06,2.26a12.61,12.61,0,0,0,.85,4.74,7.63,7.63,0,0,0,6.94,4.63c3.08,0,5.81-2.38,7.1-5a10.9,10.9,0,0,0,1.85,2.39,7.58,7.58,0,0,0,5.18,2.38c2.55,0,4.14-2,5.05-3.78a43.1,43.1,0,0,0,2.92-8.15s-.06,4.08-.06,7.18c0,1-.06,2.37-.12,3.77-1.83,1-3.47,1.83-4.57,2.38-3.71,1.7-7.73,3.59-7.73,6.88a3.21,3.21,0,0,0,.12,1c1.16,3.41,5.72,3.47,8.22,3.47a10.88,10.88,0,0,0,7.61-3.34c2-2.32,2.86-5.67,3.35-9a24.53,24.53,0,0,0,6.18-4.37c.05.15.1.28.15.41a5.4,5.4,0,0,0,4.75,3.41,3.59,3.59,0,0,0,1.95-.55,46.07,46.07,0,0,1-.49-7.61,8.78,8.78,0,0,1,.12-1.77c.61-3.65,2.07-6.08,3.41-6.75A9.55,9.55,0,0,0,222,32.81a8.71,8.71,0,0,0,1.77-.18,27,27,0,0,0,.42,4.45c1.28,6.27,5.73,9.25,8.71,9.25a4,4,0,0,0,1.22-.18c4.5-1.59,5.78-9.56,6.57-11.33,0,.55-.06,1.34-.06,2.26a12.61,12.61,0,0,0,.85,4.74,7.63,7.63,0,0,0,6.95,4.63,7.89,7.89,0,0,0,5.8-3,6.61,6.61,0,0,0,5,2.45,2.46,2.46,0,0,0,1.58-.42,3.08,3.08,0,0,1-.12-.92c0-2,.91-6.33,2.13-10.65,1.65-5.84,3.84-11.57,5.18-11.57.91,0,1.15,2.44,1.15,5.54,0,1.77-.12,3.78-.18,5.66-.12,3.05-.36,6-.36,7.8a6.31,6.31,0,0,0,.06,1.15c.24,2.14,2.74,3.29,4.87,3.29a4.07,4.07,0,0,0,2.31-.61,1.7,1.7,0,0,1-.06-.61c0-1.76,1-6.33,2.37-10.89,1.71-5.73,4-11.39,5.24-11.39.91,0,1.1,1.71,1.1,3.78,0,2.43-.31,5.66-.31,8.76a24.17,24.17,0,0,0,.61,5.85,8.06,8.06,0,0,0,7.31,6,4.75,4.75,0,0,0,1.33-.19,10.69,10.69,0,0,0,6.34-6.69,4.68,4.68,0,0,0,.24-1.47A2.67,2.67,0,0,0,297.75,35.43ZM93.51,30.07a19.26,19.26,0,0,1,.79-3.77c.55-1.58,1.34-3.29,2.62-3.29S99,24.53,99,25.94a3,3,0,0,1-.55,1.76C97.4,29,93.51,30.07,93.51,30.07Zm23.37,12.36c-1.82,0-4.08-1.46-5.72-3.34a56,56,0,0,0,2.37-5.55c.73-2,1.46-4.2,2.07-6.27A38.89,38.89,0,0,1,119,35.55a16,16,0,0,1,.49,3.6C119.44,41,118.71,42.43,116.88,42.43Zm42.49-9.25c-1.46,4-3,6.94-4.56,6.94-1,0-1.4-2.37-1.4-5.24a31.76,31.76,0,0,1,.61-6.21c.61-3.1,1.64-6,3-7.42a3.36,3.36,0,0,1,2.25-1.16c1.28,0,2.38,1.22,2.93,3.11A71.8,71.8,0,0,1,159.37,33.18ZM190,52.66a4.22,4.22,0,0,1-2.13,1.77,3.38,3.38,0,0,1-1.27.24c-.67,0-1.1-.24-1.1-.67a.85.85,0,0,1,.12-.49,4.9,4.9,0,0,1,2.07-1.46c.85-.42,1.95-1,3.17-1.52A10.43,10.43,0,0,1,190,52.66Zm-.73-20.09c-1.4,4.2-3.1,7.55-4.62,7.55-1.1,0-1.52-2.25-1.52-4.93a36.3,36.3,0,0,1,.48-5.48c.61-3.65,1.77-7.25,3.53-8.83A2.76,2.76,0,0,1,189,20c1.28,0,2.31,1.28,2.86,2.74A82.64,82.64,0,0,1,189.26,32.57Zm48.77.61c-1.47,4-3.05,6.94-4.57,6.94-1,0-1.4-2.37-1.4-5.24a31.76,31.76,0,0,1,.61-6.21c.61-3.1,1.64-6,3-7.42A3.38,3.38,0,0,1,238,20.09c1.28,0,2.38,1.22,2.93,3.11A73.15,73.15,0,0,1,238,33.18Z"/></g></g></svg>