<svg xmlns="http://www.w3.org/2000/svg" viewBox="0 0 50 50"><defs><style>.cls-1{fill:#fff;}</style></defs><g id="Layer_2" data-name="Layer 2"><g id="Layer_1-2" data-name="Layer 1"><rect class="cls-1" width="50" height="50" rx="10"/><path d="M18.79,16.29c.28.19.56.39.85.57a.5.5,0,0,0,.34,0,25.53,25.53,0,0,1,4.55-1,9.48,9.48,0,0,1,1.6,0,6.16,6.16,0,0,0,4-1.41,3.15,3.15,0,0,0,1.07-2c.17-.75.31-1.52.51-2.27a7.9,7.9,0,0,1,.47-1.1L31.39,9c-.1,0-.22.06-.24-.19s-.11-.33.28-.52a.47.47,0,0,1-.06-.09c0-.11-.05-.22-.08-.32a.82.82,0,0,1,.29-.07,3.64,3.64,0,0,0,2-.36A7.44,7.44,0,0,1,35.82,7a1.65,1.65,0,0,0,.89-.21.34.34,0,0,1,.28,0,1,1,0,0,1,.61.75,1.13,1.13,0,0,0,.57.59,4.28,4.28,0,0,1,1.21.74,1.86,1.86,0,0,1,.54,1.2,6.7,6.7,0,0,1-1-.15c-.48-.14-.73.18-1,.41,0,0,0,.12,0,.18a6.15,6.15,0,0,1-.06.75.74.74,0,0,1-.83.66,1.33,1.33,0,0,0-1,.3.34.34,0,0,1-.22,0,2.32,2.32,0,0,1-1.24-1.24c-.17-.39-.3-.79-.42-1.14a2.71,2.71,0,0,0,1.71,2.57c0,.17,0,.34.08.49a7,7,0,0,1,.17.73,5.32,5.32,0,0,0,.66,2.1,9.91,9.91,0,0,1,.92,3.79,12.83,12.83,0,0,1-.71,5.36A11,11,0,0,1,35.1,28a4.15,4.15,0,0,1-1.22,1,4.3,4.3,0,0,0-1.6,1.75c-.35.6-.71,1.2-1.08,1.79s-.73,1-1,1.59a5.55,5.55,0,0,0-.34,1.14,2.31,2.31,0,0,1-.55,1.13,1.06,1.06,0,0,0-.23,1.1c.33,1.25.64,2.5,1,3.73a8.53,8.53,0,0,0,.79,1.53c.05.1.18.17.27.24l.4.32,0,.06L31,43.19l0,.07c.45.52,1.22.54,1.7,1.07L32,44.22a.83.83,0,0,0-.15,0,4.82,4.82,0,0,1-1.4-.47c-.66-.32-.85-.1-1.43.53a2.61,2.61,0,0,0-.17.28,1.09,1.09,0,0,1-.23.32,1.92,1.92,0,0,1-.42.16,1.31,1.31,0,0,1,0-.39c.16-.64.36-1.27.52-1.91a7.84,7.84,0,0,0,.08-.86l-.07,0-.41.34c-.07.05-.18.12-.24.1a.44.44,0,0,0-.61.23l-.06-.06a.89.89,0,0,1,.14-.33,3.11,3.11,0,0,1,.62-.53,1.14,1.14,0,0,0,.6-1.59H27.33c.16-.12.27-.21.38-.28.83-.52.88-.6.62-1.54s-.62-2.1-.88-3.17a9.89,9.89,0,0,1-.12-1.54c0-.3,0-.61,0-1l-.21.13c-.44.36-.89.71-1.29,1.1a2.18,2.18,0,0,0-.36.61c-.14.25-.27.5-.4.75a3.46,3.46,0,0,0-.38,1.66A16.63,16.63,0,0,0,25.13,41a4.4,4.4,0,0,0,.55,1.16,1.68,1.68,0,0,0,1.13.63,1.54,1.54,0,0,1,.3.11.76.76,0,0,1,.12.2c-.07,0-.15.09-.22.08a8.53,8.53,0,0,1-1.12-.22c-.43-.13-.63.18-.56.52s.09.51.12.77a2.88,2.88,0,0,1,0,.41l-.08,0a1.31,1.31,0,0,1-.17-.24c-.1-.2-.16-.42-.27-.61a4,4,0,0,0-.55-.73.64.64,0,0,0-.85-.08l-.89.62-.21-.26.18-.23a6.75,6.75,0,0,0,1.48-3,5.54,5.54,0,0,0,.05-1.41c-.09-1-.22-2-.35-3a1.11,1.11,0,0,0-.14-.34c-.17-.3-.36-.6-.52-.91a7.33,7.33,0,0,0-2.73-3.18,2.13,2.13,0,0,1-.59-.57,6.07,6.07,0,0,1-1.39-3.6c0-.26,0-.53,0-.79a.55.55,0,0,0-.44.52s0,.1,0,.15c-.07.3-.13.33-.43.15l.13.52a6.94,6.94,0,0,1-1.17-3.11h-.08c0,.21,0,.42,0,.63s0,.43.05.64h-.07l-.15-1.7-.08.32V21.55l-.06,0-.21.37h0l.13-.55h0l-.17.5h0l.13-.73h0l-.17.48h0l.14-.71h0l-.28.65h0l.16-.75h0l-.2.43h0l.26-.81-.27.37h0l.19-.5,0,0-.28.4-.06,0,.46-.81-.15,0,0,0,.27-.19c0-.31-.27-.11-.42-.13.3-.23.3-.26.09-.58a8.29,8.29,0,0,0-1.66-1.58,4,4,0,0,1-1-1,1.13,1.13,0,0,0-.39-.42,12.21,12.21,0,0,1-1.79-1.73c-1.64-1.69-3.29-3.37-5.08-4.9C5.33,9.1,5.2,9,5.05,8.9c.17-.14.34-.26.49-.4s.26-.31.4-.48l.63.3c-.16.41-.7.5-.8,1l1-.92.58.3c-.19.31-.61.37-.71.8a1.47,1.47,0,0,0,.25-.12A6,6,0,0,0,7.37,9c.12-.13.23-.17.38-.06a4.33,4.33,0,0,0,.41.23,4.78,4.78,0,0,1-.44.32c-.33.16-.4.49-.57.76,0,0,0,.11,0,.24.13-.14.25-.21.28-.32A1,1,0,0,1,8,9.52a4,4,0,0,0,.34-.27l.58.33c-.24.32-.67.42-.84.86L9,9.65l.53.31-.93.75.07.1c.27-.19.53-.39.8-.57a2,2,0,0,1,.34-.12l.15,0a2.6,2.6,0,0,0,.36-.25c-.33.18-.64.22-.87-.18l.26-.17A.46.46,0,0,1,9,9.3l.29-.25c-.1,0-.19.07-.29.09s-.2,0-.25,0A14.67,14.67,0,0,0,6,7.25a2.94,2.94,0,0,1,.42,0,4.17,4.17,0,0,1,1.87.83c1.68,1.25,3.37,2.5,5,3.76.9.67,1.78,1.38,2.66,2.07l.07,0h0a.34.34,0,0,1-.14,0,1.36,1.36,0,0,0-1.35.22,4.6,4.6,0,0,0-1.19,1.22,1.26,1.26,0,0,0-.14.4l.07,0c.22-.33.43-.66.66-1a.8.8,0,0,1,.22-.23c.14-.11.29-.21.44-.31.45-.3.45-.3.85.12A4.19,4.19,0,0,0,13.91,16l.05,0a9.9,9.9,0,0,1,.69-.88,5.6,5.6,0,0,1,.86-.66s.17,0,.23.08a2.05,2.05,0,0,1,.27.25,4,4,0,0,0-1.68,1.83l.69-.83a5.44,5.44,0,0,1,.41-.42,4.59,4.59,0,0,0,.44-.33c.16-.16.3-.19.46,0a1.47,1.47,0,0,0,.22.21l-.91.63a2.73,2.73,0,0,0-.91,1.29c.26-.29.51-.58.74-.89a1.76,1.76,0,0,0,.16-.4,2.75,2.75,0,0,0,.34-.1c.14-.07.25-.17.38-.25.35-.22.45-.2.71.16l-.81.51.06.08.55-.33c.37-.24.47-.22.7.2-.34.23-.7.46-1,.7a1,1,0,0,0-.32.33c-.11.26-.42.44-.35.79,0,.09,0,.2-.08.31a.72.72,0,0,0,.4-.61c0-.18.18-.37.3-.54a3.88,3.88,0,0,1,1-.82c.19-.13.38-.07.52.2,0,.06-.08.2-.13.29l.3-.12.49.49c0-.32.2-.21.38-.2a.89.89,0,0,1-.73-.46l.87.15v0a4.22,4.22,0,0,0-.69-.14.89.89,0,0,1-.66-.36l.93.12Zm-4.86-3.11.42.32a5,5,0,0,0-1.87,1.93l.15.19a3.42,3.42,0,0,0,.3-.56,2.07,2.07,0,0,1,.61-.81,1.92,1.92,0,0,1,1.64-.75.75.75,0,0,0-.24-.08,1.26,1.26,0,0,1-.95-.25l-.07,0,.6-.19a1.3,1.3,0,0,0-.44,0c-.33.11-.47-.12-.69-.32l.48-.06v0l-.82,0,.1.13c-.75.46-1.56,1.33-1.56,1.74a3.7,3.7,0,0,0,.57-.67c.21-.45.67-.6,1-.93a.23.23,0,0,1,.24,0,2,2,0,0,1,.34.29l-.75.73a2.12,2.12,0,0,0-.85,1,.15.15,0,0,0,0,.06,2.12,2.12,0,0,0,.39-.33,8.51,8.51,0,0,0,.43-.78l.42-.27Zm-2.73-.71.94-.6.41.33C11.4,13.14,11.08,13.51,11,14a.93.93,0,0,0,.57-.56,1.9,1.9,0,0,1,.55-.75,1.65,1.65,0,0,1,1.25-.51,1.21,1.21,0,0,0-.49-.05c-.31.06-.46-.14-.7-.35h.66v-.06c-.2,0-.4-.07-.61-.09a.39.39,0,0,0-.22.09,2.88,2.88,0,0,0-.33.28l-.48.47a1,1,0,0,0-.54.71l.06.05Zm19.39,3.09.16.11-.11.17.3,0a1,1,0,0,1,.75.43c.09.14.16.29.37.18,0,0,.08,0,.13,0a1.15,1.15,0,0,0,.35.1,5.54,5.54,0,0,0,.57-.07c.1.21.17.25.41.15a1.83,1.83,0,0,1,.87-.13,1.17,1.17,0,0,0,.57-.14,6.35,6.35,0,0,1,.63-.33C36,16,36,16,36,15.53l-.59-.08s-.08-.08-.11-.06a1.65,1.65,0,0,1-.79.13,2.29,2.29,0,0,1-1,.05.75.75,0,0,0-.33-.06,1.19,1.19,0,0,1-1-.46.69.69,0,0,0-.32-.19l-.75-.21a1.19,1.19,0,0,0-.52-.07,1.9,1.9,0,0,0-.47.34c.11.09.21.14.23.21.06.25.22.22.4.19M22,19.59v0a2.37,2.37,0,0,0-.35.19,7.66,7.66,0,0,0-.66.45.54.54,0,0,0-.15.21,5,5,0,0,1-.29.71,9.34,9.34,0,0,0-1,2.17,11.16,11.16,0,0,0-.77,3.7.84.84,0,0,0,.26.67l.16-1.9.26.06c-.05.46-.11.91-.15,1.36,0,.08.07.18.11.27a1.16,1.16,0,0,0,.15-.26c0-.16.05-.34.08-.5a2.34,2.34,0,0,0,.07-.45c0-.15,0-.22.23-.22,0,.32-.08.62-.1.93a1.07,1.07,0,0,0,.06.3c.1-.07.27-.12.28-.21.08-.53.13-1.07.19-1.61H20.3l-.19.29c-.38-.14-.13-.36-.09-.59l-.32.45-.06,0,.2-.8,0,0-.52.84-.07,0,0-.09a1.88,1.88,0,0,0,.34-1,.37.37,0,0,1,.15-.3,1,1,0,0,0,.44-.64c0-.11.19-.19.33-.32l-.26.08.54-1.12-.07,0c-.06,0-.14.05-.17.1L19.42,24a.43.43,0,0,0,0-.05l.06-.22A13.31,13.31,0,0,1,20.75,21c.2-.34.27-.76.72-.94A2.23,2.23,0,0,0,22,19.59Zm-11.8-6.78a1.3,1.3,0,0,0,.25-.33,1.33,1.33,0,0,1,.48-.64c.34-.24.61-.64,1.13-.51a1,1,0,0,0-.45-.1c-.31.08-.4-.16-.58-.27l0-.06.54.1v0l-.23-.15.16-.19a1.89,1.89,0,0,1-.59.15,2.16,2.16,0,0,1-.55-.23l.29-.21c-.16,0-.32,0-.47.06a.18.18,0,0,0-.09,0c-.33.31-.66.62-1,.91a.44.44,0,0,0-.15.51,1.55,1.55,0,0,0,.36-.42c.17-.43.58-.59.87-.89a.19.19,0,0,1,.18,0c.13.09.24.19.37.3a.59.59,0,0,1-.09.11c-.29.23-.59.44-.87.68a.9.9,0,0,0-.2.27,2,2,0,0,0-.13.37l0,0,.43-.59a.55.55,0,0,1,.13-.17c.22-.19.45-.37.68-.54.05,0,.17,0,.21,0a4.17,4.17,0,0,1,.38.34C10.13,12.48,10.13,12.48,10.22,12.81ZM37,11.6h.1a2.59,2.59,0,0,0,0-.68,5.61,5.61,0,0,0-.32-1c-.19-.5-.11-.63.4-.64.33,0,.45-.15.49-.47a1.82,1.82,0,0,1,.19-.5l-.37.19-.06-1a1.41,1.41,0,0,0,0,1c.17.37,0,.58-.38.59s-.64.21-.45.68a1.11,1.11,0,0,0,.07.16A2.11,2.11,0,0,1,37,11.6ZM22.09,24.16c.2.23.07.35-.1.49a.38.38,0,0,0-.11.25c0,.21.08.41.13.62,0,0,.06.07.09.11a.32.32,0,0,0,0-.19,3.13,3.13,0,0,1,.1-.44.2.2,0,0,1,.18-.09c.06,0,.11.09.17.14.07-.2.17-.38-.09-.52,0,0,0-.09,0-.13C22.43,24.2,22.31,24.1,22.09,24.16Zm-.71.13h.06l0-.41c0-.06,0-.16.07-.16a.36.36,0,0,1,.2.06s0,.07.07.12a1.08,1.08,0,0,0-.07-.87s-.13,0-.2-.05c.11.12.21.21,0,.32a.56.56,0,0,0-.27.68Zm2.5-3.15a.73.73,0,0,1,0,.23c-.06.15-.23.31-.19.42s.24.22.37.32,0,0,.08,0,0-.26,0-.39,0-.13,0-.19A.31.31,0,0,0,23.88,21.14Zm0-4.49-.05-.07-1,.72,0,0c0,.07,0,.14,0,.21s.15,0,.19-.06.16-.23.25-.33a3.28,3.28,0,0,1,.34-.31l.06,0-.16.23.06.07.68-.52-.49.13Zm-7.72-.21-.09-.06c-.37.46-1,.78-.89,1.54.11-.14.26-.3.26-.45,0-.32.28-.44.41-.66A2.17,2.17,0,0,1,16.2,16.44ZM36.08,9.19l0-.07a1.54,1.54,0,0,1-1.28-.21c-.18-.08-.25-.07-.35,0l1,.32c-.18.06-.38,0-.54.07a.49.49,0,0,1-.65-.17c.13.33.25.38.5.33l.68-.13ZM23,24c.31-.25-.08-.51,0-.74l-.45-.34.1.4a3.21,3.21,0,0,0,.12.33C22.84,23.76,22.94,23.87,23,24Zm-5.26-7a3.36,3.36,0,0,0-1.46,1.73A7.8,7.8,0,0,1,17.77,16.94Zm4.5,5.66a2,2,0,0,0,.11-.3,1,1,0,0,0,.06-.44.33.33,0,0,0-.24-.2c-.09,0-.17.43-.12.53S22.21,22.48,22.27,22.6ZM22,18.69a1.26,1.26,0,0,0-.7.89A1,1,0,0,0,22,19h-.2ZM22.93,21a.76.76,0,0,0,.28,1c0-.33-.07-.63-.12-.92C23.08,21,23,21,22.93,21ZM34.33,8.27l.09.06a.7.7,0,0,0,.16-.19.77.77,0,0,1,.63-.47,1.12,1.12,0,0,0,.37-.17,1.63,1.63,0,0,0-.78.16A2.67,2.67,0,0,0,34.33,8.27ZM23.64,18.75c-.32-.05-.51.16-.73.41a.92.92,0,0,0,.32.09c.07,0,.18-.12.17-.18S23.48,18.81,23.64,18.75Zm1.85-1.89-.06-.09c-.22.1-.45.2-.66.32,0,0-.05.12,0,.17a.15.15,0,0,0,.16,0C25.1,17.16,25.29,17,25.49,16.86Zm-4,10.37c-.07.2.06.34.38.38l-.1-.32.46-.22,0-.07Zm1.18-8.57a1.17,1.17,0,0,0-.25.07s-.11.09-.1.14a.21.21,0,0,0,.11.16.42.42,0,0,0,.49-.35l-.21.1Zm.83,3.91.27,1C23.94,23.21,23.84,22.68,23.52,22.57Zm2.19-4.9-.1,0h-.67s-.1.05-.1.08a.12.12,0,0,0,.06.12A.76.76,0,0,0,25.71,17.67Zm-2.05,2.27c.22,0,.4-.39.34-.77l-.38.4.08,0Zm-.42,4.86.05.6.18.06c.05,0,.12,0,.13,0a.19.19,0,0,0,0-.16C23.5,25.12,23.36,25,23.24,24.8Zm-.37,2a.43.43,0,0,0-.28-.69Zm1-2.52-.06,0c0,.12,0,.25,0,.37a.21.21,0,0,0,.27.21s.11-.13.09-.16S24,24.47,23.91,24.32ZM21.08,21.1c.33-.09.4-.16.46-.41Zm3.5-.39c-.07-.26.18-.52-.1-.73C24.39,20.23,24.16,20.49,24.58,20.71ZM21.8,20.5a7.48,7.48,0,0,1,.69-.5,6.36,6.36,0,0,1,.75-.34A2.12,2.12,0,0,0,21.8,20.5Zm14-11.88c-.12-.11-.19-.22-.27-.23s-.19.12-.19.19a.3.3,0,0,0,.19.21C35.59,8.8,35.68,8.7,35.8,8.62Zm-15.13,15c-.19.07-.24.34-.09.6C20.67,24.06,21,23.89,20.67,23.64Zm.7-2.1c-.39.12-.08.46-.24.65A.5.5,0,0,0,21.37,21.54Zm-.13,4.51c-.07.17-.15.33,0,.45a.21.21,0,0,0,.19,0C21.58,26.24,21.36,26.19,21.24,26.05Zm3.48-9.88,0-.07a3.11,3.11,0,0,0-.44.08c-.06,0-.1.11-.14.17s.17,0,.23,0A2.64,2.64,0,0,0,24.72,16.17ZM24.28,19l0,0,.27,0,0,.24h.06l.29-.66C24.62,18.77,24.57,19.07,24.28,19Zm-.64,1.37c-.18-.09-.34-.24-.52,0,0,0-.06.09-.1.13s.12.07.17.06A4.59,4.59,0,0,0,23.64,20.4ZM23,18.25c.14-.11.42-.08.36-.4C23.25,18,22.89,17.86,23,18.25Zm-.93,2.1-.37.82C22,21,22.22,20.74,22.11,20.35ZM21.5,18.7a.83.83,0,0,0-.21.09.35.35,0,0,0-.1.19.19.19,0,0,0,.12.11C21.54,19.05,21.51,18.87,21.5,18.7ZM24,26.3c-.11-.42-.16-.48-.41-.42C23.75,26,23.67,26.31,24,26.3Zm-.64.41.16-.06-.25-.55-.11,0Zm1.28-9.81c-.32-.14-.52-.07-.59.21Zm-3.1,1.34c.35,0,.44-.21.52-.53Zm2.39-.91-.26.29c.05,0,.11.09.16.08S24.05,17.56,23.92,17.33ZM22.76,18c-.21.09-.42.12-.45.41C22.5,18.34,22.74,18.34,22.76,18Zm1.26.23,0,.08c.29,0,.39,0,.46-.32Zm-3.18,7.16.05-.54C20.71,25.05,20.55,25.21,20.84,25.43Zm2-8.13-.05-.05c-.16.09-.36.14-.44.33l.06.07Zm2.71-.72.08.12.39-.25L26,16.36Zm-.27.58,0,.08c.29,0,.29,0,.35-.25Z"/></g></g></svg>