<svg width="22" height="22" viewBox="0 0 22 22" fill="none" xmlns="http://www.w3.org/2000/svg">
<path d="M21 10.4444C21.0038 11.9109 20.6612 13.3576 20 14.6666C19.216 16.2353 18.0108 17.5546 16.5194 18.477C15.0279 19.3993 13.3091 19.8882 11.5555 19.8889C10.089 19.8927 8.64234 19.55 7.33332 18.8889L1 21L3.11111 14.6666C2.44992 13.3576 2.10729 11.9109 2.11111 10.4444C2.11179 8.69083 2.60068 6.97205 3.52302 5.48061C4.44536 3.98916 5.76472 2.78396 7.33332 2C8.64234 1.33881 10.089 0.996178 11.5555 1H12.1111C14.427 1.12777 16.6145 2.10529 18.2546 3.7454C19.8947 5.3855 20.8722 7.57294 21 9.88888V10.4444Z" stroke="black" stroke-width="2" stroke-linecap="round" stroke-linejoin="round"/>
</svg>
