<svg width="23" height="21" viewBox="0 0 23 21" fill="none" xmlns="http://www.w3.org/2000/svg">
<path d="M20.0065 3.5895C19.5178 3.085 18.9376 2.6848 18.299 2.41175C17.6604 2.13871 16.9759 1.99817 16.2846 1.99817C15.5933 1.99817 14.9088 2.13871 14.2702 2.41175C13.6316 2.6848 13.0513 3.085 12.5627 3.5895L11.5485 4.63602L10.5342 3.5895C9.54713 2.57093 8.20831 1.9987 6.81231 1.9987C5.41632 1.9987 4.0775 2.57093 3.09038 3.5895C2.10326 4.60807 1.54871 5.98956 1.54871 7.43004C1.54871 8.87052 2.10326 10.252 3.09038 11.2706L4.10458 12.3171L11.5485 19.9982L18.9923 12.3171L20.0065 11.2706C20.4954 10.7663 20.8833 10.1676 21.1479 9.50862C21.4125 8.84965 21.5487 8.14334 21.5487 7.43004C21.5487 6.71674 21.4125 6.01042 21.1479 5.35145C20.8833 4.69248 20.4954 4.09376 20.0065 3.5895V3.5895Z" stroke="black" stroke-width="2" stroke-linecap="round" stroke-linejoin="round"/>
</svg>
