<?xml version="1.0" encoding="utf-8"?>
<!-- Generator: Adobe Illustrator 25.2.3, SVG Export Plug-In . SVG Version: 6.00 Build 0)  -->
<svg version="1.1" id="Layer_1" xmlns="http://www.w3.org/2000/svg" xmlns:xlink="http://www.w3.org/1999/xlink" x="0px" y="0px"
	 viewBox="0 0 23 21" style="enable-background:new 0 0 23 21;" xml:space="preserve">
<style type="text/css">
	.st0{fill:#F16958;stroke:#F16958;stroke-width:2;stroke-linecap:round;stroke-linejoin:round;}
</style>
<path class="st0" d="M20,3.6c-0.5-0.5-1.1-0.9-1.7-1.2C17.7,2.1,17,2,16.3,2c-0.7,0-1.4,0.1-2,0.4c-0.6,0.3-1.2,0.7-1.7,1.2l-1,1
	l-1-1C9.5,2.6,8.2,2,6.8,2C5.4,2,4.1,2.6,3.1,3.6S1.5,6,1.5,7.4s0.6,2.8,1.5,3.8l1,1l7.4,7.7l7.4-7.7l1-1c0.5-0.5,0.9-1.1,1.1-1.8
	c0.3-0.7,0.4-1.4,0.4-2.1S21.4,6,21.1,5.4C20.9,4.7,20.5,4.1,20,3.6L20,3.6z"/>
</svg>
