<svg width="22" height="22" viewBox="0 0 22 22" fill="none" xmlns="http://www.w3.org/2000/svg">
<path d="M17.2223 18V16.4445C17.2223 15.6193 16.8945 14.828 16.3111 14.2446C15.7276 13.6611 14.9363 13.3333 14.1112 13.3333H7.88894C7.06383 13.3333 6.2725 13.6611 5.68906 14.2446C5.10561 14.828 4.77783 15.6193 4.77783 16.4445V18" stroke="white" stroke-width="2" stroke-linecap="round" stroke-linejoin="round"/>
<path d="M11 10.2222C12.7182 10.2222 14.1111 8.82933 14.1111 7.11111C14.1111 5.39289 12.7182 4 11 4C9.28181 4 7.88892 5.39289 7.88892 7.11111C7.88892 8.82933 9.28181 10.2222 11 10.2222Z" stroke="white" stroke-width="2" stroke-linecap="round" stroke-linejoin="round"/>
<path d="M11 21C16.5228 21 21 16.5228 21 11C21 5.47715 16.5228 1 11 1C5.47715 1 1 5.47715 1 11C1 16.5228 5.47715 21 11 21Z" stroke="white" stroke-width="2" stroke-linecap="round" stroke-linejoin="round"/>
</svg>
