<svg width="130" height="27" viewBox="0 0 130 27" fill="none" xmlns="http://www.w3.org/2000/svg">
<path d="M13.0595 3.34428C11.0794 1.53724 8.46664 0.837463 6.04024 0.837463C3.61383 0.837463 1.50372 1.53724 0.632817 2.48062C0.247277 2.86567 0.0208674 3.38719 0.000218075 3.93776C-0.00629998 4.35789 0.133481 4.76672 0.394603 5.09123C0.655725 5.41575 1.02119 5.63483 1.42573 5.70936C1.71603 5.38604 2.56094 4.952 3.71782 4.60211L3.42752 10.4882C3.34953 12.3529 3.27153 14.213 3.27153 15.8562C3.27153 16.2991 3.29753 16.773 3.29753 17.1849C2.89619 17.8108 2.67683 18.5404 2.66493 19.2887C2.6673 19.64 2.71985 19.9892 2.82092 20.3251C3.06642 20.9625 3.44532 21.5375 3.93107 22.0095C4.41683 22.4816 4.99768 22.8393 5.63295 23.0577C6.17023 23.2268 6.73037 23.3075 7.29244 23.2969C9.9328 23.2378 12.4483 22.1362 14.3117 20.2232C16.0448 18.363 17.0024 15.7942 17.0024 12.6939C17.0233 10.94 16.683 9.20118 16.0037 7.59043C15.3245 5.97967 14.3213 4.53297 13.0595 3.34428ZM12.5655 16.4231C11.9556 17.7156 11.0667 18.8499 9.96582 19.7404C9.06891 20.4136 8.19801 20.8167 7.6174 20.8167C6.90681 20.8167 6.6945 19.9796 6.6945 19.488C6.70976 18.6846 6.97879 17.9078 7.46142 17.2735C8.32799 16.2194 8.88693 15.6259 10.2041 15.3291C10.2548 15.2104 10.2813 15.0823 10.2821 14.9527C10.2821 14.089 9.35922 13.9296 8.72662 13.9296C8.1609 13.9305 7.59954 14.0308 7.06713 14.2263C7.17112 13.5797 7.19711 10.9622 7.19711 8.96467C7.19711 6.78118 7.14512 4.78813 6.85482 4.0042C7.3661 3.96434 7.59574 3.93776 7.83405 3.93776C9.44587 3.93776 11.0014 4.31423 12.0543 5.31518C13.3195 6.5553 13.9001 8.36233 13.9001 10.3022C13.9261 12.4208 13.4692 14.5164 12.5655 16.4231Z" fill="#1D1D1B"/>
<path d="M20.9193 6.23199C21.2104 6.23833 21.4987 6.17301 21.7599 6.04155C21.985 5.95725 22.1781 5.80199 22.3113 5.59819C22.4445 5.39439 22.5109 5.15259 22.5008 4.90772C22.4761 4.39844 22.2802 3.91348 21.9462 3.53473C21.6644 3.19834 21.3168 2.92602 20.9257 2.73532C20.5347 2.54461 20.1089 2.43975 19.6758 2.42748C19.3762 2.41964 19.0792 2.48493 18.8092 2.61793C18.5831 2.71106 18.3895 2.87145 18.2535 3.07834C18.1175 3.28524 18.0455 3.52909 18.0466 3.77833C18.0727 4.27417 18.2691 4.74471 18.6013 5.10703C18.8889 5.45011 19.244 5.72755 19.6433 5.92135C20.0427 6.11515 20.4774 6.22099 20.9193 6.23199Z" fill="#1D1D1B"/>
<path d="M129.011 16.5294C128.861 17.0844 128.638 17.6162 128.348 18.1105C127.98 18.7882 127.482 19.3507 127.005 19.3507C126.875 19.353 126.747 19.316 126.637 19.2444C126.373 19.0849 126.321 18.301 126.321 17.2513C126.321 16.4408 126.347 15.4797 126.399 14.5541C126.451 13.717 126.477 12.8533 126.477 12.1535C126.501 11.6464 126.457 11.1383 126.347 10.6432C126.167 9.93715 125.764 9.31146 125.201 8.86307C124.637 8.41469 123.945 8.16863 123.231 8.16301C122.842 8.14329 122.456 8.24692 122.126 8.45975C121.51 8.98292 121.037 9.66044 120.753 10.4262C120.287 11.6063 119.897 12.8166 119.587 14.0491C119.614 13.7799 119.623 13.5091 119.613 13.2386C119.627 12.2248 119.481 11.2154 119.18 10.2491C118.963 9.67159 118.585 9.17193 118.093 8.8121C117.601 8.45228 117.016 8.24814 116.411 8.22502C115.893 8.22658 115.391 8.40769 114.986 8.73878C113.851 9.68216 113.006 13.9694 112.876 14.6692C112.954 13.7834 113.032 12.8976 113.032 12.0118C113.067 11.2458 112.969 10.4794 112.742 9.74859C112.557 9.35999 112.268 9.03253 111.91 8.80378C111.551 8.57503 111.136 8.45426 110.714 8.45532C110.415 8.45088 110.119 8.51442 109.847 8.64134C109.997 9.39592 110.058 10.1661 110.029 10.9356C110.029 12.1225 109.977 13.593 109.899 14.9527C109.847 15.8385 109.804 16.6933 109.782 17.424C109.63 17.7795 109.439 18.1167 109.215 18.4294C108.846 18.9432 108.448 19.3462 108.027 19.3462C107.926 19.345 107.826 19.3176 107.737 19.2665C107.447 19.1071 107.343 18.2434 107.343 17.1096C107.343 16.4895 107.369 15.8163 107.421 15.1165C107.551 13.1722 107.789 11.1526 107.789 10.5015C107.789 9.85046 107.208 9.23483 106.55 8.85836C106.157 8.60698 105.712 8.45513 105.25 8.41546C104.96 8.41546 104.747 8.52176 104.747 8.79193L104.695 9.23483C104.341 8.78374 103.89 8.42095 103.379 8.17388C102.867 7.92682 102.306 7.80194 101.74 7.80869C101.219 7.80515 100.701 7.89664 100.211 8.07886C98.4777 8.72549 97.4941 10.8381 97.1215 13.0571C96.9012 13.2007 96.6462 13.279 96.3849 13.2829C96.3177 13.2811 96.2515 13.266 96.1899 13.2386C95.8606 13.1556 95.5562 12.9909 95.3039 12.7592C95.0515 12.5275 94.8588 12.2358 94.7428 11.9099C94.7428 11.9099 95.7177 10.7495 95.7177 9.91689C95.7177 8.78307 94.5304 7.81312 93.6335 7.81312C93.4052 7.81312 93.1831 7.88932 93.0009 8.03014C92.4463 8.47304 92.026 9.4297 92.026 10.6432C92.0304 10.8965 92.0478 11.1493 92.078 11.4006C91.9164 11.6684 91.7717 11.9466 91.6448 12.2333C91.6519 11.5085 91.5807 10.7851 91.4324 10.0763C91.3477 9.69457 91.184 9.33578 90.9524 9.02408C90.7207 8.71239 90.4264 8.45503 90.0892 8.26931C89.7842 8.12083 89.4521 8.03936 89.1144 8.03014C88.8588 8.01085 88.605 8.08633 88.3994 8.24273C88.5154 8.675 88.5522 9.12549 88.5078 9.57143C88.5078 10.6211 88.4254 12.1845 88.4254 14.9881C88.4254 15.6834 88.4254 16.3655 88.4644 16.9989C87.8242 17.7238 87.0962 18.3623 86.298 18.8989C86.35 17.3886 86.35 16.7154 86.376 15.5816C86.402 14.4478 86.428 13.1545 86.48 12.0384C86.532 11.095 86.6143 10.2668 86.6143 10.1206C86.6143 9.52714 86.0857 9.01781 85.4791 8.72106C85.0873 8.51157 84.6555 8.39215 84.2139 8.37117C83.8413 8.37117 83.577 8.50404 83.5509 8.77421L83.473 9.31455C83.1434 8.82448 82.7023 8.42367 82.1875 8.14667C81.6727 7.86968 81.0997 7.7248 80.5179 7.72454C80.0006 7.72765 79.4892 7.83762 79.0144 8.04786C77.6452 8.66792 76.6964 10.0675 76.1937 11.6841C75.8689 12.7771 75.6997 13.9122 75.6911 15.0545C75.6876 15.7303 75.7559 16.4045 75.8948 17.0653C75.7184 17.5376 75.4824 17.9842 75.1928 18.394C74.8245 18.9078 74.4259 19.3108 74.0056 19.3108C73.9038 19.3099 73.8039 19.2825 73.7153 19.2311C73.425 19.0716 73.3167 18.208 73.3167 17.0742C73.3167 16.4541 73.347 15.7809 73.399 15.0811C73.529 13.1368 73.7673 11.1172 73.7673 10.4661C73.7673 9.81503 73.1867 9.1994 72.5281 8.82293C72.1353 8.57217 71.6897 8.42037 71.2283 8.38003C70.938 8.38003 70.73 8.48633 70.73 8.7565L70.678 9.1994C70.3234 8.7483 69.8731 8.38551 69.3612 8.13845C68.8492 7.89138 68.2891 7.76651 67.723 7.77326C67.2015 7.76972 66.6836 7.86121 66.1935 8.04343C63.8711 8.90265 62.9222 12.3573 62.9222 15.214C62.9251 15.8928 62.986 16.57 63.1041 17.238C63.1041 17.331 63.1475 17.4152 63.1691 17.5038C63.017 17.8929 62.8097 18.257 62.5539 18.5844C62.3936 18.8292 62.183 19.0353 61.9368 19.1883C61.6906 19.3413 61.4147 19.4375 61.1283 19.4702C60.9193 19.4755 60.7147 19.4084 60.5477 19.2798C60.1535 18.983 59.9671 17.8227 59.9671 16.0998C59.9982 14.3596 60.1211 12.6224 60.3354 10.8957C60.4213 10.4313 60.4835 9.96269 60.5217 9.49171C60.98 9.48917 61.4375 9.45365 61.8909 9.38541C62.1019 9.36859 62.3075 9.30902 62.4957 9.21017C62.6839 9.11132 62.8509 8.97516 62.9871 8.80964C63.0915 8.65958 63.1476 8.48 63.1475 8.29588C63.1368 8.04293 63.0733 7.79525 62.9611 7.56952C62.1722 7.64804 61.3791 7.67467 60.5867 7.64925C60.6127 7.24621 60.6127 6.86974 60.6127 6.51985C60.6355 6.04044 60.6006 5.55999 60.5087 5.08929C60.1924 3.95546 59.7418 3.22911 59.2089 2.87479C58.9225 2.66307 58.5826 2.54007 58.2297 2.52047C58.089 2.51499 57.9494 2.54727 57.8247 2.6141C57.7 2.68092 57.5946 2.77997 57.5191 2.90136C57.2745 3.39723 57.1624 3.9503 57.1941 4.50466C57.1941 4.94756 57.2201 5.42146 57.2201 6.01495C57.2201 6.49771 57.2201 7.03805 57.1941 7.68468C56.6959 7.68721 56.1998 7.75115 55.7166 7.87513C55.5984 7.9166 55.4975 7.99797 55.4306 8.10583C55.3637 8.2137 55.3346 8.34164 55.3483 8.46861C55.3528 8.5956 55.3703 8.72176 55.4003 8.84508C55.4339 9.04748 55.4861 9.24619 55.5563 9.43856L57.1421 9.49171C57.0598 11.2633 57.0078 12.9729 56.9818 14.4832C56.9558 15.0722 56.9558 15.6126 56.9558 16.1263C56.9558 16.3522 56.9558 16.5692 56.9558 16.7686C56.7864 17.2268 56.5352 17.6488 56.2149 18.0131C55.7669 18.5881 55.2172 19.0719 54.5944 19.4392C54.9572 18.7038 55.1387 17.8888 55.123 17.0653C55.1089 15.9444 54.8576 14.8399 54.3864 13.8277C53.9531 12.8843 53.1992 11.5911 52.4843 10.1339C52.3867 9.94209 52.3333 9.73 52.3283 9.51385C52.3541 9.18808 52.469 8.87628 52.6597 8.61396C52.8505 8.35164 53.1094 8.14936 53.4072 8.03014C53.451 8.01416 53.4895 7.98562 53.5179 7.94793C53.5463 7.91023 53.5635 7.86497 53.5675 7.81755C53.5675 7.49423 52.9609 7.00704 52.064 6.87417C51.7777 6.82578 51.4874 6.80649 51.1974 6.8166C50.0362 6.8166 49.1393 7.19749 48.823 8.19401C48.7296 8.47931 48.6856 8.77907 48.693 9.07981C48.6891 9.38871 48.724 9.69684 48.797 9.99661C48.6073 11.0455 48.3525 12.081 48.0344 13.0969C47.746 14.0503 47.4016 14.985 47.0032 15.896C46.6311 16.0653 46.3156 16.342 46.0955 16.6922C45.8753 17.0424 45.7601 17.4507 45.764 17.8669C45.7709 18.2671 45.861 18.6611 46.0283 19.0229V19.0583C45.3144 18.7309 44.6445 18.3112 44.0352 17.8094C43.1733 17.1069 42.3704 16.3321 41.6348 15.493C41.6348 15.493 44.4598 14.8464 45.595 13.0925C45.8853 12.6453 46.0364 12.1188 46.0283 11.5822C46.0271 10.9932 45.8921 10.4125 45.634 9.88589C45.4088 9.3667 45.046 8.92229 44.5866 8.60294C44.1271 8.28359 43.5894 8.10205 43.0343 8.07886C41.4528 8.07886 40.3436 9.18168 39.607 10.3952C39.633 9.42527 39.633 8.53505 39.633 7.69797C39.6859 6.49522 39.6177 5.29009 39.4293 4.10162C39.3473 3.72468 39.1893 3.36935 38.9655 3.05823C38.7417 2.74712 38.457 2.48705 38.1295 2.29459C37.816 2.11084 37.4596 2.01746 37.0982 2.02442C36.9017 2.01713 36.7053 2.04409 36.5176 2.10414C36.5509 2.30898 36.5596 2.5172 36.5436 2.7242C36.5436 4.12819 36.3877 7.6581 36.3097 11.1659C36.2967 12.3528 36.2663 13.5088 36.2663 14.5673C36.2663 15.2937 36.2663 15.9846 36.301 16.618C36.1905 17.3001 35.9083 17.9412 35.4821 18.4781C35.0878 18.9875 34.6372 19.3639 34.2429 19.3639C34.1309 19.3537 34.0227 19.3173 33.9266 19.2576C33.7143 19.1248 33.6363 18.5579 33.6363 17.7739C33.6363 17.0742 33.7143 16.1839 33.7663 15.2671C33.7663 15.1343 33.7923 14.997 33.7923 14.8641C33.8746 13.81 33.9266 12.7337 33.9266 11.8435C33.9523 11.2997 33.9086 10.7548 33.7966 10.2225C33.5462 9.58847 33.1217 9.04203 32.5743 8.64909C32.0269 8.25615 31.38 8.0335 30.7116 8.008C30.2187 7.99837 29.7363 8.15393 29.3381 8.4509C28.2592 9.28798 27.2583 12.6584 26.8337 14.4079C26.9766 13.4177 27.0562 12.4191 27.072 11.4183C27.0993 10.8361 27.0289 10.2534 26.864 9.69544C26.6883 9.24494 26.3917 8.85426 26.0085 8.5683C25.6253 8.28234 25.1709 8.11269 24.6976 8.07886C24.4806 8.08415 24.2664 8.12915 24.065 8.21173C24.1741 8.74295 24.2177 9.28602 24.195 9.82831C24.195 10.909 24.117 12.313 24.013 13.6594C24.013 13.7657 23.9826 13.8764 23.9826 13.9827C23.8917 15.0944 23.8223 16.1972 23.805 17.083C23.6018 17.5989 23.3179 18.0775 22.9644 18.5003C22.8474 18.6758 22.6954 18.8242 22.5185 18.9356C22.3415 19.047 22.1436 19.119 21.9375 19.1469C21.8275 19.1457 21.7192 19.1185 21.6212 19.0672C21.3309 18.9033 21.2529 18.1504 21.2529 17.1229C21.2529 16.5028 21.2789 15.7942 21.3309 15.0722C21.4349 13.4025 21.6212 11.6486 21.6212 10.599C21.6226 10.3735 21.6052 10.1482 21.5692 9.92575C21.4373 9.16972 21.0548 8.48316 20.486 7.98142C20.0503 7.63087 19.511 7.44193 18.9565 7.44551C18.7791 7.44739 18.6023 7.46518 18.4279 7.49866C18.4279 7.55181 18.4539 7.68468 18.4539 7.7954C18.4539 9.00895 17.9816 13.4822 17.9816 16.2105C17.9513 17.0697 18.024 17.9294 18.1983 18.7705C18.6316 20.2763 19.7018 21.4633 21.5259 21.4633C22.6005 21.4633 23.5927 20.6838 24.2296 19.6917C24.4391 20.0874 24.7199 20.439 25.0572 20.7281C25.378 21.0302 25.7849 21.2195 26.2184 21.2684C26.4567 21.2684 26.6127 21.1577 26.6127 20.8875C26.6127 20.108 27.0893 18.084 27.7479 16.0156C28.6145 13.2652 29.728 10.4572 30.3476 10.4572C30.6379 10.4572 30.7419 10.9001 30.7419 11.6442C30.7419 12.4547 30.6119 13.6151 30.5296 14.7755C30.4776 15.3956 30.4516 16.0422 30.4516 16.6623C30.4219 17.4262 30.5111 18.1901 30.7159 18.9255C30.9098 19.6783 31.3453 20.3428 31.9526 20.8126C32.5598 21.2823 33.3038 21.5302 34.0652 21.5164C34.8582 21.5164 35.9327 20.6838 36.6346 19.7227C36.6465 19.7722 36.6609 19.821 36.678 19.8688C36.9683 20.8122 37.9778 21.7556 38.7881 21.7556C38.9093 21.757 39.0293 21.7316 39.14 21.6812C39.2507 21.6307 39.3494 21.5564 39.4293 21.4633C39.4293 20.8432 39.4293 18.9033 39.4813 16.5294C40.0189 17.5253 40.6753 18.4491 41.4354 19.2798C42.1078 20.0212 42.9141 20.6228 43.8099 21.0514C44.2769 21.2911 44.7908 21.4198 45.3134 21.4279C45.7098 21.4366 46.101 21.3339 46.4442 21.1311C46.7444 20.9592 46.9942 20.7084 47.1678 20.4048C47.8844 20.9397 48.6972 21.325 49.5596 21.5386C50.4099 21.7583 51.2824 21.8757 52.1593 21.8885C53.3744 21.9076 54.572 21.5908 55.6256 20.9717C56.2975 20.5881 56.8987 20.0875 57.4021 19.4924C57.6541 20.1039 58.0851 20.6208 58.6358 20.9721C59.1866 21.3234 59.8302 21.4918 60.4784 21.4544C61.1759 21.4676 61.8638 21.2872 62.4689 20.9323C63.074 20.5774 63.5735 20.0614 63.9144 19.4392C64.7506 20.7192 65.9292 21.3393 66.8131 21.3393C66.9922 21.3408 67.1706 21.3139 67.3417 21.2596C69.2915 20.5553 69.8461 17.0254 70.1884 16.2415C70.1884 16.4851 70.1624 16.835 70.1624 17.2425C70.1521 17.9599 70.2771 18.6727 70.5307 19.3418C70.783 19.9451 71.2017 20.4603 71.7357 20.8244C72.2697 21.1885 72.8958 21.3859 73.5377 21.3924C74.8722 21.3924 76.0551 20.3383 76.614 19.1779C76.8318 19.5671 77.1016 19.9234 77.4156 20.2365C78.0011 20.873 78.8062 21.2511 79.66 21.2906C80.7649 21.2906 81.4538 20.4048 81.8481 19.6164C82.3873 18.4596 82.8112 17.2503 83.1133 16.0068C83.1133 16.0068 83.0873 17.8138 83.0873 19.1868C83.0873 19.6297 83.0613 20.2365 83.0353 20.8565C82.2424 21.2994 81.5318 21.667 81.0552 21.9106C79.4477 22.6635 77.7059 23.5006 77.7059 24.9578C77.7003 25.1073 77.7179 25.2567 77.7579 25.4007C78.2605 26.911 80.2363 26.9375 81.3195 26.9375C82.5668 26.9099 83.7525 26.3779 84.6168 25.4582C85.4834 24.4307 85.856 22.947 86.0683 21.4721C87.0535 20.9725 87.9568 20.3196 88.7461 19.5367C88.7677 19.6031 88.7894 19.6607 88.8111 19.7183C88.9761 20.1454 89.2579 20.515 89.6228 20.7828C89.9878 21.0506 90.4205 21.2054 90.8692 21.2285C91.1678 21.232 91.4612 21.1474 91.7141 20.985C91.5523 19.8694 91.4813 18.742 91.5018 17.6145C91.4932 17.3521 91.5106 17.0894 91.5538 16.8306C91.8181 15.214 92.4507 14.1377 93.0313 13.841C93.4169 14.3158 93.8994 14.6986 94.4451 14.9625C94.9907 15.2265 95.5863 15.3652 96.1899 15.369C96.4476 15.3692 96.7045 15.3425 96.9569 15.2893C96.9641 15.9502 97.025 16.6095 97.1388 17.2602C97.6934 20.0372 99.6216 21.357 100.913 21.357C101.092 21.3585 101.27 21.3316 101.441 21.2773C103.391 20.5731 103.946 17.0431 104.288 16.2592C104.288 16.5028 104.262 16.8527 104.262 17.2602C104.252 17.9776 104.377 18.6904 104.63 19.3595C104.883 19.9635 105.302 20.4791 105.837 20.8433C106.372 21.2075 106.999 21.4045 107.642 21.4101C108.129 21.3849 108.606 21.2532 109.039 21.024C109.472 20.7948 109.853 20.4734 110.155 20.0814C110.417 20.4125 110.747 20.6811 111.121 20.8685C111.495 21.056 111.905 21.1577 112.321 21.1665C112.563 21.1861 112.805 21.1205 113.006 20.9805C112.968 20.8482 112.951 20.7108 112.954 20.5731C112.954 19.6873 113.348 17.7695 113.877 15.8562C114.592 13.2696 115.541 10.7318 116.121 10.7318C116.515 10.7318 116.619 11.8125 116.619 13.1855C116.619 13.9694 116.567 14.8597 116.541 15.6923C116.489 17.0431 116.385 18.3497 116.385 19.1469C116.379 19.3172 116.388 19.4876 116.411 19.6563C116.515 20.6041 117.599 21.1134 118.522 21.1134C118.874 21.1277 119.223 21.0336 119.522 20.8432C119.498 20.7555 119.489 20.664 119.496 20.5731C119.496 19.7936 119.93 17.7695 120.523 15.7499C121.264 13.2121 122.256 10.7053 122.794 10.7053C123.188 10.7053 123.27 11.4626 123.27 12.3794C123.27 13.4557 123.136 14.8862 123.136 16.2592C123.121 17.1306 123.209 18.0007 123.4 18.8502C123.587 19.5777 123.994 20.2264 124.563 20.7036C125.131 21.1808 125.833 21.4622 126.568 21.5076C126.763 21.5076 126.957 21.4792 127.144 21.4234C127.789 21.1703 128.371 20.7728 128.846 20.2601C129.321 19.7474 129.678 19.1325 129.891 18.4604C129.959 18.2505 129.995 18.0307 129.995 17.8094C130.023 17.5079 129.936 17.207 129.753 16.9689C129.57 16.7307 129.305 16.5734 129.011 16.5294ZM40.5169 14.1554C40.5761 13.5886 40.6908 13.0292 40.8592 12.4857C41.0975 11.7859 41.4398 11.0286 41.9944 11.0286C42.549 11.0286 42.8956 11.7018 42.8956 12.3263C42.8982 12.6052 42.8148 12.878 42.6573 13.1058C42.2024 13.6815 40.5169 14.1554 40.5169 14.1554ZM50.6428 19.6297C49.8542 19.6297 48.875 18.983 48.1644 18.1504C48.5497 17.3505 48.8925 16.5299 49.1913 15.6923C49.5076 14.8065 49.8239 13.8321 50.0882 12.9153C50.7157 14.0757 51.21 15.3062 51.5614 16.5825C51.6911 17.104 51.7624 17.639 51.7737 18.177C51.752 18.9963 51.4357 19.6297 50.6428 19.6297ZM69.0532 15.5329C68.4206 17.3045 67.7533 18.6066 67.0774 18.6066C66.6441 18.6066 66.4708 17.5569 66.4708 16.2858C66.4703 15.3623 66.5589 14.4411 66.7351 13.5354C66.9994 12.1624 67.4457 10.878 68.0349 10.2491C68.282 9.95445 68.6318 9.77009 69.0098 9.7353C69.5644 9.7353 70.0411 10.2756 70.2794 11.1127C69.9754 12.6144 69.5656 14.0916 69.0532 15.5329ZM82.3247 24.1605C82.1121 24.5205 81.787 24.7967 81.4018 24.9445C81.2268 25.0158 81.04 25.0519 80.8516 25.0508C80.5613 25.0508 80.375 24.9445 80.375 24.754C80.3704 24.678 80.3885 24.6023 80.4269 24.537C80.6653 24.2448 80.9746 24.0218 81.3239 23.8904C81.6922 23.7044 82.1688 23.4475 82.6974 23.2172C82.6075 23.5447 82.4826 23.8611 82.3247 24.1605ZM82.0085 15.2627C81.4018 17.1229 80.6653 18.6066 80.0067 18.6066C79.53 18.6066 79.3481 17.6101 79.3481 16.4231C79.3572 15.6098 79.4268 14.7985 79.556 13.996C79.8204 12.3794 80.323 10.785 81.0855 10.0852C81.295 9.85395 81.5837 9.71432 81.8915 9.69544C82.4461 9.69544 82.8924 10.2624 83.1307 10.909C82.8429 12.3825 82.4667 13.8365 82.0041 15.2627H82.0085ZM103.14 15.5329C102.503 17.3045 101.818 18.6066 101.16 18.6066C100.726 18.6066 100.553 17.5569 100.553 16.2858C100.553 15.3623 100.641 14.4411 100.817 13.5354C101.082 12.1624 101.528 10.878 102.117 10.2491C102.243 10.1 102.397 9.97786 102.57 9.8897C102.742 9.80153 102.93 9.74906 103.123 9.7353C103.677 9.7353 104.154 10.2756 104.392 11.1127C104.072 12.615 103.648 14.0921 103.123 15.5329H103.14Z" fill="#1D1D1B"/>
</svg>
